<svg xmlns="http://www.w3.org/2000/svg" width="960" height="253.7163162570329" viewBox="0 0 960 253.7163162570329"><g transform="scale(3.020432336393249)"><g transform="translate(-11.858823529411765,-22.729411764705883) scale(0.9882352941176471)"><path d="M 44 106 A 28 28 0 0 1 16 68 A 23 23 0 0 1 43 38 A 30 30 0 0 1 95 43 A 21 21 0 0 1 122 72 A 22 22 0 0 1 100 106 A 120 120 0 0 0 44 106 Z" fill="#FFFFFF" stroke="#12A8A0" stroke-width="3" stroke-linecap="round" stroke-linejoin="round"/><ellipse cx="40" cy="82" rx="7.5" ry="4.6" fill="#F4C0C4" opacity="0.75"/><ellipse cx="100" cy="82" rx="7.5" ry="4.6" fill="#F4C0C4" opacity="0.75"/><ellipse cx="55" cy="70" rx="4.6" ry="6" fill="#213141"/><ellipse cx="85" cy="70" rx="4.6" ry="6" fill="#213141"/><circle cx="53.4" cy="67.8" r="1.5" fill="#FFFFFF"/><circle cx="83.4" cy="67.8" r="1.5" fill="#FFFFFF"/><path d="M60 83 Q70 89 80 83" fill="none" stroke="#213141" stroke-width="4" stroke-linecap="round" stroke-linejoin="round"/></g><g transform="translate(136.63529411764705,10) scale(0.6)"><path d="M8 92 V65 A17 17 0 0 1 42 65 V92" fill="none" stroke="#213141" stroke-width="16" stroke-linecap="round" stroke-linejoin="round"/><path d="M68 92 V48" fill="none" stroke="#213141" stroke-width="16" stroke-linecap="round" stroke-linejoin="round"/><circle cx="68" cy="26" r="8" fill="#213141"/><path d="M94 92 V63 A15 15 0 0 1 124 63 V92 M124 63 A15 15 0 0 1 154 63 V92" fill="none" stroke="#213141" stroke-width="16" stroke-linecap="round" stroke-linejoin="round"/><path d="M180 8 V92" fill="none" stroke="#213141" stroke-width="16" stroke-linecap="round" stroke-linejoin="round"/><circle cx="202" cy="70" r="22" fill="none" stroke="#213141" stroke-width="16" stroke-linecap="round" stroke-linejoin="round"/><circle cx="272" cy="70" r="22" fill="none" stroke="#213141" stroke-width="16" stroke-linecap="round" stroke-linejoin="round"/></g></g></svg>
